<?xml version="1.0" encoding="utf-8"?>
<!-- Generator: Adobe Illustrator 18.0.0, SVG Export Plug-In . SVG Version: 6.00 Build 0)  -->
<!DOCTYPE svg PUBLIC "-//W3C//DTD SVG 1.1//EN" "http://www.w3.org/Graphics/SVG/1.1/DTD/svg11.dtd">
<svg xmlns:xlink="http://www.w3.org/1999/xlink" version="1.1" id="Layer_1" xmlns="http://www.w3.org/2000/svg" x="0px" y="0px"
	 viewBox="0 0 365 365" enable-background="new 0 0 365 365" xml:space="preserve">
<g>
	<rect y="0" fill="#C8CC75" width="365" height="365"/>
</g>
<g>
	<g>
		<g>
			<g>
				<path fill="#F4F0D4" d="M225.9,110.7c-25.6,18.2-39.2,35.8-45.7,51.6c5.4,9,9.8,20.6,11.3,35.2c7.8-24.7,19.2-32.7,19.2-32.7
					c-17.5,39.1-13.6,62.5-13.6,62.5C267.7,163.7,225.9,110.7,225.9,110.7z"/>
				<path fill="#F4F0D4" d="M173.3,167c-14.1-23.4-35.7-30-35.7-30c-34,95.9,32,115,32,115c-21.3-40.1-13.4-62-13.4-62
					c8.1,42.1,24.8,59,24.8,59c4.2-18.3,5-33.8,3.6-46.8C183.1,187.6,178.8,176,173.3,167z"/>
			</g>
		</g>
	</g>
</g>
</svg>
