<?xml version="1.0" encoding="utf-8"?>
<!-- Generator: Adobe Illustrator 18.0.0, SVG Export Plug-In . SVG Version: 6.00 Build 0)  -->
<!DOCTYPE svg PUBLIC "-//W3C//DTD SVG 1.1//EN" "http://www.w3.org/Graphics/SVG/1.1/DTD/svg11.dtd">
<svg xmlns:xlink="http://www.w3.org/1999/xlink" version="1.1" id="Layer_1" xmlns="http://www.w3.org/2000/svg" x="0px" y="0px"
	 viewBox="0 0 365 365" enable-background="new 0 0 365 365" xml:space="preserve">
<g>
	<rect y="0" fill="#8DC687" width="365" height="365"/>
</g>
<g>
	<g>
		<g>
			<g>
				<path fill="#F4F0D5" d="M116.9,190.2c0,6-4.8,10.8-10.8,10.8c-6,0-10.8-4.8-10.8-10.8c0-6,4.8-10.8,10.8-10.8
					C112.1,179.4,116.9,184.3,116.9,190.2z"/>
				<path fill="#F4F0D5" d="M222,190.2c0,6-4.8,10.8-10.8,10.8c-6,0-10.8-4.8-10.8-10.8c0-6,4.8-10.8,10.8-10.8
					C217.2,179.4,222,184.3,222,190.2z"/>
				<g>
					<path fill="#F4F0D5" d="M223.6,154.2c0,0-16.5-11.9-23.8-15.2c-12.3-5.5-41.2-8.5-53.9-4.2c-8.4,2.9-27.9,19.4-27.9,19.4
						s-12.9,4.1-17.6,6.2c-7.8,3.4-14.3,4-18,12.4c-1.7,3.9-1.3,16.9-1.3,16.9h9.9c0.1-8.3,6.9-15.1,15.2-15.1
						c8.4,0,15.1,6.8,15.2,15.1h75.2c0.1-8.3,6.8-15.1,15.2-15.1c8.4,0,15.1,6.8,15.2,15.1h9.4c0,0,1.5-18.7,1.8-23.2
						C238.5,159.8,232.3,155.7,223.6,154.2z M146.8,137.9c3.6-1.2,8.7-1.9,15-2v16.9h-37.3C132.6,146.3,142.1,139.5,146.8,137.9z
						 M200.4,152.8h-36.3v-16.9c12.9,0.1,27.4,2.6,35,6C201,142.8,200.4,152.8,200.4,152.8z"/>
					<g>
						<path fill="#F4F0D5" d="M173.1,240c0,1.3-1,2.4-2.3,2.4h-14.6c-1.3,0-2.3-1.1-2.3-2.4v-7.9c0-1.3,1.1-2.3,2.3-2.3h14.6
							c1.3,0,2.3,1.1,2.3,2.3V240z"/>
						<path fill="#F4F0D5" d="M148,220.7v30.6c8.3-0.1,15.1-6.9,15.1-15.3C163.1,227.7,156.4,220.9,148,220.7z"/>
						<rect x="141.4" y="220.6" fill="#F4F0D5" width="6.6" height="30.9"/>
						<path fill="#F4F0D5" d="M145.7,228.4c0,1-0.8,1.9-1.8,1.9h-16.7c-1,0-1.8-0.8-1.8-1.9l0,0c0-1,0.8-1.9,1.8-1.9h16.7
							C144.8,226.5,145.7,227.3,145.7,228.4L145.7,228.4z"/>
						<path fill="#F4F0D5" d="M145.7,243.2c0,1-0.8,1.8-1.8,1.8h-16.7c-1,0-1.8-0.8-1.8-1.8l0,0c0-1,0.8-1.9,1.8-1.9h16.7
							C144.8,241.3,145.7,242.1,145.7,243.2L145.7,243.2z"/>
					</g>
					<g>
						<path fill="#F4F0D5" d="M251.4,179.2c-6.2-1.8-13.1-3.4-20.4-4.8v2.7c7,1.3,13.6,2.8,19.6,4.6c19.9,5.9,31.4,13.8,31.4,21.7
							c0,8-11.4,15.9-31.4,21.8c-20.7,6.1-48.3,9.5-77.6,9.5c-7,0-14-0.2-20.7-0.6v2.7c6.8,0.4,13.7,0.6,20.7,0.6
							c29.6,0,57.4-3.4,78.4-9.6c21.4-6.3,33.2-15,33.2-24.3C284.6,194.1,272.8,185.5,251.4,179.2z"/>
					</g>
				</g>
			</g>
		</g>
	</g>
</g>
</svg>
