<?xml version="1.0" encoding="utf-8"?>
<!-- Generator: Adobe Illustrator 18.0.0, SVG Export Plug-In . SVG Version: 6.00 Build 0)  -->
<!DOCTYPE svg PUBLIC "-//W3C//DTD SVG 1.1//EN" "http://www.w3.org/Graphics/SVG/1.1/DTD/svg11.dtd">
<svg xmlns:xlink="http://www.w3.org/1999/xlink" version="1.1" id="Layer_1" xmlns="http://www.w3.org/2000/svg" x="0px" y="0px"
	 viewBox="0 0 365 365" enable-background="new 0 0 365 365" xml:space="preserve">
<g>
	<rect y="0" fill="#D1D174" width="365" height="365"/>
</g>
<path fill-rule="evenodd" clip-rule="evenodd" fill="#F4F0D4" d="M183,101.6c30.5,0,55.3,24.8,55.3,55.3c0,19.2-9.7,36-24.5,46
	h-61.6c-14.8-9.9-24.5-26.8-24.5-46C127.7,126.3,152.5,101.6,183,101.6z"/>
<path fill-rule="evenodd" clip-rule="evenodd" fill="#F4F0D4" d="M144.9,190.3c0,0,4.2,6,5.9,12.6h66.4c0.3-3.3,1.1-7.5,2.6-13.1
	C225.2,169.1,144.9,190.3,144.9,190.3z"/>
<path display="none" fill-rule="evenodd" clip-rule="evenodd" fill="#F2D3B3" d="M161.1,129.1c0,0-8.7,1.6-12.4,8.4
	c-3.7,6.8-2.2,15.6-2.2,15.6s0.7,3.9-1.5,4.9c-2.2,1-4.6-1.3-4.9-3.3c-0.3-2-2.2-11.7,2.8-20.4c4.9-8.7,13.1-10,14.4-10.3
	c1.3-0.3,4.9-0.6,5.4,1.2C163.3,127,163.1,128.4,161.1,129.1z"/>
<path fill-rule="evenodd" clip-rule="evenodd" fill="#F4F0D4" d="M154.9,208.1H213c2.3,0,4.1,4.7,4.1,10.5v14
	c0,5.8-1.9,10.5-4.1,10.5h-58.1c-2.3,0-4.1-4.7-4.1-10.5v-14C150.8,212.9,152.6,208.1,154.9,208.1z"/>
<path fill-rule="evenodd" clip-rule="evenodd" fill="#F4F0D4" d="M203.2,245.2v4.1c0,4.4-7.8,7.9-17.3,7.9h-3.8
	c-9.5,0-17.3-3.6-17.3-7.9v-4.1H203.2z"/>
<g>
	<path fill-rule="evenodd" clip-rule="evenodd" fill="#D3D687" d="M181.5,185.8c-0.1-3.3-0.1-15.9,3.9-24.2
		c4.5-9.6,12-15.5,18.3-22.2c6.3-6.7,9.4-8.2,9.3-17.5c-0.2-9.3,4.7,9.3,2.4,30.7c-2.3,21.5-20.2,33.4-26.8,35.5
		c-6.6,2.1-13.4,5.5-17.2,10c-3.8,4.5-3.9-0.2,9.6-11.3C181.6,186.5,181.5,186.6,181.5,185.8z"/>
	<path fill-rule="evenodd" clip-rule="evenodd" fill="#D3D687" d="M180.9,187.3c0-1.9,0-9.5-2.3-14.5c-2.7-5.7-7.2-9.3-11-13.3
		c-3.8-4-5.6-4.9-5.5-10.4c0.1-5.5-2.8,5.5-1.5,18.4c1.4,12.8,12.1,20,16,21.3c4,1.3,8,3.3,10.3,6c2.3,2.7,2.3-0.1-5.8-6.8
		C180.8,187.8,180.9,187.8,180.9,187.3z"/>
</g>
</svg>
