<?xml version="1.0" encoding="utf-8"?>
<!-- Generator: Adobe Illustrator 18.0.0, SVG Export Plug-In . SVG Version: 6.00 Build 0)  -->
<!DOCTYPE svg PUBLIC "-//W3C//DTD SVG 1.1//EN" "http://www.w3.org/Graphics/SVG/1.1/DTD/svg11.dtd">
<svg xmlns:xlink="http://www.w3.org/1999/xlink" version="1.1" id="Layer_1" xmlns="http://www.w3.org/2000/svg" x="0px" y="0px"
	 viewBox="0 0 360 360" enable-background="new 0 0 360 360" xml:space="preserve">
<g>
	<path fill="#95D8A5" d="M360.5,359.9H0.6c-0.6,0-1-0.4-1-1V0.5c0-0.6,0.4-1,1-1h359.9c0.6,0,1,0.4,1,1v358.5
		C361.5,359.5,361,359.9,360.5,359.9z"/>
</g>
<path display="none" fill="#FFFFFF" d="M228.2,170.6c0,10.2-8.3,18.5-18.5,18.5c-10.2,0-18.6-8.3-18.6-18.5s18.6-41.4,18.6-41.4
	S228.2,160.4,228.2,170.6z"/>
<path display="none" fill="#FFFFFF" d="M174.6,124.2c0,8.2-6.7,14.9-14.9,14.9c-8.2,0-14.9-6.7-14.9-14.9S159.8,91,159.8,91
	S174.6,116,174.6,124.2z"/>
<path display="none" fill-rule="evenodd" clip-rule="evenodd" fill="#3079A3" d="M141.2,237.2c0,0-0.2,6,3.8,9.5
	c4,3.5,10.1,3.8,10.1,3.8s2.8,0.1,3.1,1.8c0.3,1.6-1.6,2.9-3,2.7c-1.4-0.1-8.2-0.4-13.3-5c-5.1-4.6-4.8-10.3-4.8-11.1
	c0-0.9,0.3-3.4,1.6-3.4C140.1,235.4,141,235.7,141.2,237.2z"/>
<path fill="#F4F0D4" d="M229.2,207.1c0,26.7-21.6,50.8-48.3,50.8s-48.3-24.1-48.3-50.8s48.3-103.9,48.3-103.9
	S229.2,180.4,229.2,207.1z"/>
<path display="none" fill="#EAE4BB" d="M180.8,103.2c0,0-0.1,0.1-0.2,0.3c0.1,10,0.4,20,0,30v124.3c0.1,0,0.2,0,0.3,0
	c26.7,0,48.3-24.1,48.3-50.8C229.1,180.4,180.8,103.2,180.8,103.2z"/>
<path display="none" fill="#7DBCC8" d="M146.5,201.1c0-8.2,4.4-22,10.6-37.3c5.4-13.3,3.7-13.9-3.7,2.1c-7.3,15.7-13.2,31-13.2,39.6
	c0,16.9,10.2,32.6,24.8,39.6c3.5,1.7,4.9,0,2.1-2.2C154.7,233.3,146.5,217.7,146.5,201.1z"/>
</svg>
