<?xml version="1.0" encoding="utf-8"?>
<!-- Generator: Adobe Illustrator 18.0.0, SVG Export Plug-In . SVG Version: 6.00 Build 0)  -->
<!DOCTYPE svg PUBLIC "-//W3C//DTD SVG 1.1//EN" "http://www.w3.org/Graphics/SVG/1.1/DTD/svg11.dtd">
<svg xmlns:xlink="http://www.w3.org/1999/xlink" version="1.1" id="Layer_1" xmlns="http://www.w3.org/2000/svg" x="0px" y="0px"
	 viewBox="0 0 365 365" enable-background="new 0 0 365 365" xml:space="preserve">
<g>
	<rect y="0" fill="#DDD15E" width="365" height="365"/>
</g>
<g>
	<circle fill="#F4F0D4" cx="181.5" cy="180" r="51.5"/>
	<polygon fill="#F4F0D4" points="188,122.3 175.1,122.3 181.6,102.9 	"/>
	<polygon fill="#F4F0D4" points="169.9,123.1 157.6,127.1 157.7,106.6 	"/>
	<polygon fill="#F4F0D4" points="152.9,129.5 142.4,137.1 136.2,117.5 	"/>
	<polygon fill="#F4F0D4" points="138.7,140.8 131.1,151.2 119.2,134.6 	"/>
	<polygon fill="#F4F0D4" points="128.7,155.9 124.7,168.2 108.2,156.1 	"/>
	<polygon fill="#F4F0D4" points="123.8,173.4 123.8,186.4 104.4,179.9 	"/>
	<polygon fill="#F4F0D4" points="124.6,191.5 128.6,203.9 108.1,203.7 	"/>
	<polygon fill="#F4F0D4" points="131,208.5 138.6,219 119.1,225.2 	"/>
	<polygon fill="#F4F0D4" points="142.3,222.8 152.8,230.4 136.1,242.3 	"/>
	<polygon fill="#F4F0D4" points="157.4,232.8 169.7,236.8 157.6,253.3 	"/>
	<polygon fill="#F4F0D4" points="174.9,237.6 187.9,237.6 181.4,257.1 	"/>
	<polygon fill="#F4F0D4" points="193,236.8 205.4,232.8 205.2,253.3 	"/>
	<polygon fill="#F4F0D4" points="210.1,230.5 220.5,222.8 226.7,242.4 	"/>
	<polygon fill="#F4F0D4" points="224.3,219.2 231.9,208.7 243.8,225.3 	"/>
	<polygon fill="#F4F0D4" points="234.3,204 238.3,191.7 254.8,203.9 	"/>
	<polygon fill="#F4F0D4" points="239.1,186.5 239.1,173.6 258.6,180 	"/>
	<polygon fill="#F4F0D4" points="238.3,168.4 234.3,156.1 254.8,156.2 	"/>
	<polygon fill="#F4F0D4" points="232,151.4 224.4,140.9 243.9,134.7 	"/>
	<polygon fill="#F4F0D4" points="220.7,137.2 210.2,129.6 226.8,117.6 	"/>
	<polygon fill="#F4F0D4" points="205.5,127.2 193.2,123.1 205.4,106.7 	"/>
</g>
<g display="none">
	<g display="inline">
		<path fill="#FFFFFF" d="M180.3,251.2c-25.2-2.6-24.7-40-24.7-40l-0.9,0l-2.4,0l-0.9,0c0,0,1.9,37.3-23.3,40.8
			c-7,1-12.9,0.1-12.3,2.1l37.2-0.6l2.4,0l37.2-0.6C193.1,250.8,187.3,251.9,180.3,251.2z"/>
	</g>
	<polygon display="inline" fill="#FFFFFF" points="193.9,211.6 104.5,213.2 125.8,170.7 215.2,169.1 	"/>
	<polygon display="inline" fill="#F1B226" points="135.8,182.4 121.6,182.6 126.6,173.5 140.9,173.2 	"/>
	<polygon display="inline" fill="#F1B226" points="130.9,193.7 116.7,194 121.7,184.8 135.9,184.5 	"/>
	<polygon display="inline" fill="#F1B226" points="125.5,204.9 111.2,205.1 116.3,196 130.5,195.7 	"/>
	<polygon display="inline" fill="#F1B226" points="153.2,182.1 138.9,182.3 143.9,173.2 158.2,172.9 	"/>
	<polygon display="inline" fill="#F1B226" points="148.2,193.4 134,193.6 139,184.5 153.3,184.3 	"/>
	<polygon display="inline" fill="#F1B226" points="142.8,204.6 128.6,204.8 133.6,195.7 147.8,195.4 	"/>
	<polygon display="inline" fill="#F1B226" points="170,182.2 155.8,182.4 160.8,173.3 175,173 	"/>
	<polygon display="inline" fill="#F1B226" points="165.1,193.5 150.8,193.7 155.9,184.6 170.1,184.3 	"/>
	<polygon display="inline" fill="#F1B226" points="159.7,204.7 145.4,204.9 150.4,195.8 164.7,195.5 	"/>
	<polygon display="inline" fill="#F1B226" points="187.2,182 172.9,182.2 178,173.1 192.2,172.8 	"/>
	<polygon display="inline" fill="#F1B226" points="182.2,193.3 168,193.6 173,184.4 187.3,184.1 	"/>
	<polygon display="inline" fill="#F1B226" points="176.8,204.5 162.6,204.7 167.6,195.5 181.9,195.3 	"/>
	<polygon display="inline" fill="#F1B226" points="204.7,181.8 190.4,182.1 195.5,172.9 209.7,172.7 	"/>
	<polygon display="inline" fill="#F1B226" points="199.7,193.2 185.5,193.4 190.5,184.3 204.8,184 	"/>
	<polygon display="inline" fill="#F1B226" points="194.3,204.3 180.1,204.6 185.1,195.4 199.3,195.2 	"/>
</g>
<g display="none">
	<g display="inline">
		<path fill="#FFFFFF" d="M226.8,268.4c-25.8-2.7-25.2-40.8-25.2-40.8l-1,0l-2.5,0l-1,0c0,0,1.9,38.1-23.8,41.7
			c-7.1,1-13.1,0.1-12.6,2.2l38-0.7l2.5,0l38-0.7C239.9,268.1,234,269.1,226.8,268.4z"/>
	</g>
	<polygon display="inline" fill="#FFFFFF" points="240.7,228 149.3,229.5 171.1,186.1 262.4,184.5 	"/>
	<polygon display="inline" fill="#F1B226" points="181.3,198.1 166.8,198.3 171.9,189 186.5,188.7 	"/>
	<polygon display="inline" fill="#F1B226" points="176.3,209.7 161.7,209.9 166.9,200.6 181.5,200.3 	"/>
	<polygon display="inline" fill="#F1B226" points="170.8,221.1 156.2,221.3 161.3,212 175.9,211.7 	"/>
	<polygon display="inline" fill="#F1B226" points="199.1,197.8 184.5,198 189.6,188.7 204.2,188.4 	"/>
	<polygon display="inline" fill="#F1B226" points="194,209.4 179.4,209.6 184.6,200.2 199.1,200 	"/>
	<polygon display="inline" fill="#F1B226" points="188.5,220.8 173.9,221 179,211.6 193.6,211.4 	"/>
	<polygon display="inline" fill="#F1B226" points="216.3,197.9 201.7,198.1 206.8,188.8 221.4,188.5 	"/>
	<polygon display="inline" fill="#F1B226" points="211.2,209.4 196.7,209.7 201.8,200.3 216.4,200.1 	"/>
	<polygon display="inline" fill="#F1B226" points="205.7,220.8 191.1,221.1 196.3,211.7 210.8,211.5 	"/>
	<polygon display="inline" fill="#F1B226" points="233.8,197.7 219.2,197.9 224.4,188.6 239,188.3 	"/>
	<polygon display="inline" fill="#F1B226" points="228.8,209.2 214.2,209.5 219.3,200.1 233.9,199.9 	"/>
	<polygon display="inline" fill="#F1B226" points="223.2,220.7 208.7,220.9 213.8,211.5 228.4,211.3 	"/>
	<polygon display="inline" fill="#F1B226" points="251.7,197.5 237.1,197.8 242.3,188.4 256.8,188.2 	"/>
	<polygon display="inline" fill="#F1B226" points="246.6,209.1 232.1,209.4 237.2,200 251.8,199.7 	"/>
	<polygon display="inline" fill="#F1B226" points="241.1,220.5 226.5,220.8 231.7,211.4 246.2,211.1 	"/>
</g>
<g display="none">
	<path display="inline" fill="#FFF399" d="M224.5,178.5c0-22.6-18.3-40.9-40.9-40.9v81.9C206.2,219.4,224.5,201.1,224.5,178.5z"/>
	<path display="inline" fill="#FFF4C0" d="M142.6,178.5c0,22.6,18.3,40.9,40.9,40.9v-81.9C161,137.5,142.6,155.9,142.6,178.5z"/>
	<rect x="183.6" y="101.4" display="inline" fill="#FFF399" width="4.8" height="24.1"/>
	<rect x="178.8" y="101.4" display="inline" fill="#FFF4C0" width="4.8" height="24.1"/>
	<rect x="183.6" y="231.4" display="inline" fill="#FFF399" width="4.8" height="24.1"/>
	<rect x="178.8" y="231.4" display="inline" fill="#FFF4C0" width="4.8" height="24.1"/>
	
		<rect x="125.6" y="127.7" transform="matrix(-0.7071 -0.7071 0.7071 -0.7071 141.2349 323.4847)" display="inline" fill="#FFF4C0" width="24.1" height="9.6"/>
	
		<rect x="217.5" y="219.6" transform="matrix(0.707 0.7072 -0.7072 0.707 225.9712 -96.5791)" display="inline" fill="#FFF399" width="24.1" height="9.6"/>
	<rect x="106.5" y="173.6" display="inline" fill="#FFF4C0" width="24.1" height="9.6"/>
	<rect x="236.5" y="173.6" display="inline" fill="#FFF399" width="23.9" height="9.5"/>
	
		<rect x="132.8" y="212.4" transform="matrix(0.707 0.7072 -0.7072 0.707 199.0209 -31.5666)" display="inline" fill="#FFF4C0" width="9.6" height="24.1"/>
	
		<rect x="224.7" y="120.5" transform="matrix(-0.7068 -0.7074 0.7074 -0.7068 298.0536 388.5375)" display="inline" fill="#FFF399" width="9.6" height="24.1"/>
</g>
</svg>
