<?xml version="1.0" encoding="utf-8"?>
<!-- Generator: Adobe Illustrator 18.0.0, SVG Export Plug-In . SVG Version: 6.00 Build 0)  -->
<!DOCTYPE svg PUBLIC "-//W3C//DTD SVG 1.1//EN" "http://www.w3.org/Graphics/SVG/1.1/DTD/svg11.dtd">
<svg xmlns:xlink="http://www.w3.org/1999/xlink" version="1.1" id="Layer_1" xmlns="http://www.w3.org/2000/svg" x="0px" y="0px"
	 viewBox="0 0 365 365" enable-background="new 0 0 365 365" xml:space="preserve">
<g>
	<rect y="0" fill="#A7CE8E" width="365" height="365"/>
</g>
<g>
	<path fill="#F4F0D4" d="M176.3,165.3c15.2-11.9,28.6-20,28.6-20s-9.3,12.9-24.5,24.7c-15.2,11.9-30.5,18.2-30.5,18.2
		S161.1,177.2,176.3,165.3z"/>
	<path fill="#F4F0D4" d="M238.4,150.8c-18.7-4.6-34.1-5.1-34.1-5.1s14.7,5.5,33.4,10.1c18.7,4.6,34.3,6.5,34.3,6.5
		S257.1,155.4,238.4,150.8z"/>
	<path fill="#F4F0D4" d="M197.9,76c0,0,3.2,15.4,5,34.6c1.8,19.2,1.4,34.9,1.4,34.9s-4.1-15-5.8-34.1C196.7,92.1,197.9,76,197.9,76"
		/>
</g>
<polyline fill="#F4F0D4" points="199.8,287.3 202.9,145 206.1,145 209.3,287.3 "/>
<path fill="#F4F0D4" d="M206.2,145.5c0,0.9-0.7,1.7-1.7,1.7c-0.9,0-1.7-0.7-1.7-1.7c0-0.9,0.7-1.7,1.7-1.7
	C205.4,143.8,206.2,144.6,206.2,145.5z"/>
<g>
	<path fill="#F4F0D4" d="M134.6,176.7c11.6-11.2,22.1-19.1,22.1-19.1s-6.6,11.5-18.2,22.6c-11.6,11.2-23.8,17.8-23.8,17.8
		S123,187.9,134.6,176.7z"/>
	<path fill="#F4F0D4" d="M185,159.3c-16-2.2-28.8-1.3-28.8-1.3s12.7,3.3,28.7,5.5c16,2.2,29.1,2.5,29.1,2.5S200.9,161.5,185,159.3z"
		/>
	<path fill="#F4F0D4" d="M144.9,100.5c0,0,4,12.5,7.1,28.3c3.1,15.8,4.1,28.9,4.1,28.9s-4.7-12.1-7.8-27.9
		C145.3,114.1,144.9,100.5,144.9,100.5"/>
</g>
<polyline fill="#F4F0D4" points="152.6,275.9 155.3,156.9 157.9,156.9 160.6,275.9 "/>
<path fill="#F4F0D4" d="M158,157.3c0,0.8-0.6,1.4-1.4,1.4c-0.8,0-1.4-0.6-1.4-1.4c0-0.8,0.6-1.4,1.4-1.4
	C157.4,155.9,158,156.5,158,157.3z"/>
<g display="none">
	<g display="inline">
		<path fill="#6EABB2" d="M182.5,109.2v154.5c42.7,0,77.2-34.6,77.2-77.3C259.8,143.8,225.2,109.2,182.5,109.2z"/>
		<path fill="#7DBCC8" d="M105.2,186.5c0,42.7,34.6,77.3,77.2,77.3V109.2C139.8,109.2,105.2,143.8,105.2,186.5z"/>
	</g>
	<path display="inline" fill="#FFFBD7" d="M182.5,186.5c-16.7,0-30.2-13.5-30.2-30.2s13.5-30.2,30.2-30.2V186.5z"/>
	<path display="inline" fill="#EAE5C3" d="M212.7,216.7c0,16.7-13.5,30.2-30.2,30.2v-60.4C199.2,186.5,212.7,200,212.7,216.7z"/>
	<path display="inline" fill="#EAE5C3" d="M182.5,186.5c0-16.7,13.5-30.2,30.2-30.2s30.2,13.5,30.2,30.2H182.5z"/>
	<path display="inline" fill="#FFFBD7" d="M152.3,216.7c-16.7,0-30.2-13.5-30.2-30.2h60.4C182.5,203.2,169,216.7,152.3,216.7z"/>
	<g display="inline">
		<path fill="none" d="M117.3,186.5c0,35.9,29.2,65.2,65.2,65.2V121.3C146.6,121.3,117.3,150.6,117.3,186.5z"/>
		<path fill="none" d="M247.7,186.5c0-35.9-29.2-65.2-65.2-65.2v130.4C218.4,251.7,247.7,222.4,247.7,186.5z"/>
		<path fill="#FFFBD7" d="M117.3,186.5c0-35.9,29.2-65.2,65.2-65.2v-4.8c-38.6,0-70,31.4-70,70s31.4,70,70,70v-4.8
			C146.6,251.7,117.3,222.4,117.3,186.5z"/>
		<path fill="#EAE5C3" d="M182.5,116.5v4.8c35.9,0,65.2,29.2,65.2,65.2s-29.2,65.2-65.2,65.2v4.8c38.6,0,70-31.4,70-70
			S221.1,116.5,182.5,116.5z"/>
	</g>
</g>
</svg>
